<?xml version="1.0" standalone="no"?>
<!DOCTYPE svg PUBLIC "-//W3C//DTD SVG 20010904//EN"
 "http://www.w3.org/TR/2001/REC-SVG-20010904/DTD/svg10.dtd">
<svg version="1.0" xmlns="http://www.w3.org/2000/svg"
 width="1024.000000pt" height="1024.000000pt" viewBox="0 0 1024.000000 1024.000000"
 preserveAspectRatio="xMidYMid meet">

<g transform="translate(0.000000,1024.000000) scale(0.100000,-0.100000)"
fill="#000000" stroke="none">
<path d="M5910 8455 c-732 -76 -1566 -389 -2270 -852 -597 -393 -1016 -767
-1372 -1225 -145 -187 -355 -512 -441 -685 -41 -81 -85 -219 -74 -230 3 -2 13
9 23 26 10 17 22 31 26 31 11 0 10 -7 -8 -41 -8 -17 -14 -32 -12 -34 4 -4 58
73 195 280 88 134 98 152 60 113 -25 -27 -48 -48 -51 -48 -3 0 14 30 39 68 24
37 57 87 71 112 61 101 316 434 460 601 181 208 557 555 823 758 148 113 459
317 621 408 368 207 620 320 976 438 636 212 1208 273 1731 184 345 -58 690
-189 860 -326 311 -251 338 -277 458 -432 63 -82 192 -269 230 -335 26 -47 27
-50 9 -63 -10 -7 -23 -13 -28 -13 -6 0 -44 60 -85 133 -41 72 -84 150 -97 173
-37 67 -92 109 -168 129 -37 10 -63 21 -58 24 5 3 12 19 16 34 6 25 1 35 -40
75 -25 26 -60 69 -78 97 -41 65 -103 111 -250 183 -158 78 -265 122 -406 165
-213 66 -376 101 -532 114 -161 14 -570 7 -723 -12 -660 -80 -1371 -354 -2020
-781 -312 -204 -631 -463 -973 -789 -94 -89 -302 -319 -302 -332 0 -4 26 18
57 48 151 144 491 412 703 553 542 360 1009 591 1625 802 191 66 599 178 619
170 6 -2 4 -5 -6 -5 -26 -1 -249 -68 -387 -116 -654 -225 -1251 -521 -1741
-863 -358 -250 -669 -501 -842 -679 -129 -133 -361 -424 -484 -608 -34 -49
-84 -123 -112 -164 -29 -41 -52 -79 -52 -85 0 -6 11 6 25 25 13 20 31 39 40
42 16 7 21 -8 5 -18 -5 -3 -14 -14 -19 -23 -5 -9 52 44 127 118 430 425 917
742 1557 1015 99 42 205 87 235 100 78 34 470 191 560 225 41 15 152 58 245
95 223 87 429 164 483 180 37 12 41 11 31 -1 -6 -8 -15 -14 -20 -14 -4 0 -57
-22 -116 -49 -190 -87 -622 -277 -828 -364 -558 -238 -1186 -553 -1494 -749
-285 -182 -397 -268 -584 -447 -95 -91 -203 -212 -162 -181 11 8 22 18 25 21
6 7 80 20 80 13 0 -2 -18 -15 -41 -30 -22 -14 -39 -28 -36 -31 3 -2 47 22 99
55 133 84 811 424 1058 530 19 8 21 11 7 11 -15 1 -88 -28 -119 -46 -5 -2 -8
0 -8 5 0 4 15 16 33 25 19 10 23 15 10 11 -13 -3 -23 -1 -23 5 0 5 -8 12 -17
14 -10 3 5 5 34 6 57 1 83 8 83 23 0 5 -4 6 -10 3 -5 -3 -10 -1 -10 4 0 6 -6
10 -12 8 -7 -1 -12 4 -11 11 2 6 -3 12 -10 12 -25 0 18 20 45 20 15 0 30 4 33
10 4 6 -1 7 -12 3 -40 -14 2 9 202 112 116 59 206 103 200 98 -5 -6 -84 -70
-175 -143 -91 -74 -173 -143 -182 -154 -35 -38 -18 -193 29 -268 30 -50 116
-105 173 -113 93 -13 246 58 301 140 l27 40 99 12 c54 7 163 15 243 18 l145 5
-120 -26 c-66 -14 -171 -46 -233 -70 -63 -24 -121 -44 -130 -44 -26 0 -182
-81 -192 -100 -8 -16 -4 -17 40 -15 28 2 50 1 50 -1 0 -2 -13 -10 -30 -19 -22
-11 -30 -12 -30 -3 0 8 -5 7 -16 -4 -20 -19 -11 -38 19 -39 17 0 14 -4 -13
-14 -19 -7 -28 -14 -20 -14 32 -2 180 40 297 83 159 59 277 91 451 121 79 14
168 34 200 46 31 11 66 23 77 26 45 13 -19 -38 -89 -71 -58 -27 -97 -36 -206
-50 -74 -10 -171 -27 -215 -38 -89 -22 -309 -100 -367 -129 -21 -11 -57 -20
-80 -20 l-43 -1 40 -9 c22 -4 74 -13 115 -18 41 -6 138 -22 215 -35 317 -56
440 -56 613 0 99 33 296 134 389 201 40 29 73 49 73 45 0 -17 -159 -163 -215
-198 -56 -34 -58 -35 -35 -9 l25 28 -60 -31 c-80 -41 -162 -74 -265 -107 -67
-21 -104 -26 -174 -26 -94 1 -279 22 -406 46 -129 24 -457 54 -385 35 17 -4
55 -8 85 -9 53 -1 322 -37 347 -46 7 -2 68 -12 135 -21 170 -23 317 -23 392
-1 32 10 60 16 62 14 2 -2 -14 -9 -36 -16 -22 -7 -38 -16 -35 -21 4 -6 -2 -10
-12 -10 -25 0 -130 -34 -140 -45 -4 -4 -1 -5 7 -1 8 4 6 0 -4 -8 -19 -15 -18
-16 20 -17 82 -3 -56 -19 -184 -21 -103 -3 -126 0 -135 13 -14 17 -47 32 -47
20 0 -13 -149 -1 -255 20 -71 15 -149 22 -270 24 l-170 3 150 -8 c151 -8 303
-34 495 -85 94 -25 273 -70 319 -81 13 -3 21 -7 18 -10 -3 -3 -101 6 -218 20
-118 14 -232 27 -254 30 -22 2 -87 11 -145 20 -133 20 -338 20 -457 1 -147
-24 -285 -79 -432 -173 -30 -19 -73 -40 -95 -48 -39 -13 -35 -8 74 99 146 142
264 226 463 328 87 44 157 83 154 85 -6 6 -158 -47 -246 -86 -53 -23 -90 -32
-125 -32 -98 0 -615 -109 -791 -168 -27 -8 -25 -9 13 -4 46 6 50 3 26 -20 -12
-12 -12 -16 -2 -17 7 -1 -7 -7 -32 -14 l-45 -13 42 -1 c54 -1 64 -18 16 -26
-21 -4 -42 -8 -48 -9 -14 -4 345 -20 443 -20 45 0 82 -4 82 -8 0 -4 -4 -8 -9
-8 -10 0 -212 -25 -337 -41 -72 -9 -135 -28 -95 -29 16 0 -24 -33 -52 -43 -13
-5 -17 -13 -12 -28 7 -20 4 -21 -20 -15 -116 29 -23 -12 115 -51 l35 -10 -36
-7 c-24 -5 -76 1 -164 19 -128 26 -178 30 -85 6 56 -14 61 -19 54 -48 -4 -16
-21 -25 -62 -37 l-57 -16 52 5 c28 3 113 22 190 41 76 20 157 40 180 45 23 4
68 15 100 23 78 20 260 49 538 86 127 17 237 33 245 35 97 29 470 45 449 18
-6 -6 -38 -14 -72 -18 -58 -6 -252 -39 -512 -86 -60 -11 -177 -31 -260 -44
-281 -44 -470 -77 -648 -111 -135 -26 -380 -64 -411 -64 -2 0 34 -137 51 -192
14 -45 -10 -9 -51 77 -24 52 -47 95 -50 95 -3 0 -1 -12 4 -26 13 -33 13 -37
-2 -28 -7 5 -28 7 -47 5 -20 -2 -37 3 -42 11 -8 11 -10 11 -18 0 -6 -11 -10
-10 -15 4 -4 11 -2 20 3 22 6 2 11 10 11 18 0 8 5 14 10 14 6 0 10 10 9 23 0
12 -3 16 -6 10 -8 -21 -23 -15 -23 9 0 38 -8 15 -29 -87 -29 -141 -58 -321
-72 -453 -9 -80 -16 -109 -23 -102 -13 13 -12 396 1 505 5 39 6 82 2 95 -4 14
-8 18 -8 10 -1 -12 -3 -12 -9 -2 -6 8 -20 -27 -40 -95 -33 -112 -47 -184 -83
-413 -11 -74 -23 -137 -26 -140 -3 -3 -3 67 0 155 8 192 34 382 78 553 11 40
19 76 18 80 -1 12 -37 -72 -38 -89 -1 -9 -8 -22 -17 -30 -13 -10 -17 -10 -24
1 -4 7 -6 19 -3 27 12 31 -9 10 -23 -23 -46 -111 -82 -317 -96 -555 l-12 -196
-105 -48 c-126 -57 -136 -65 -91 -65 38 0 300 34 393 51 32 5 196 30 364 53
168 24 308 48 312 54 7 12 260 53 274 45 4 -3 4 -10 -1 -16 -12 -14 -33 -87
-25 -87 3 0 29 22 59 48 29 26 75 56 101 65 42 15 183 39 191 32 1 -1 -10 -46
-25 -99 -22 -77 -32 -97 -48 -100 -11 -3 -58 -10 -105 -16 -94 -13 -159 -42
-209 -94 -23 -24 -37 -54 -55 -121 -105 -398 -97 -374 -125 -379 -47 -10 -242
-28 -247 -23 -5 4 49 212 87 336 11 35 18 65 17 67 -10 9 -802 -88 -955 -117
-60 -11 -155 -29 -213 -39 l-105 -20 380 6 c209 3 436 8 504 12 67 4 128 4
133 1 6 -4 -68 -25 -163 -48 -96 -23 -237 -59 -314 -80 -77 -22 -160 -44 -185
-50 -36 -8 -15 -9 105 -6 83 3 251 8 375 11 124 4 228 8 233 11 4 2 7 -7 7
-20 0 -27 -4 -28 -320 -87 -91 -17 -219 -42 -285 -57 -66 -15 -127 -27 -135
-28 -127 -15 -165 -41 -44 -31 43 4 228 11 409 16 398 11 400 11 393 5 -3 -3
-86 -23 -184 -45 -99 -21 -219 -48 -269 -59 -49 -12 -107 -23 -129 -27 -21 -3
-36 -7 -35 -9 4 -4 217 -25 264 -26 17 -1 140 24 275 54 270 62 1072 198 1085
185 2 -2 -18 -71 -44 -153 -27 -83 -45 -151 -40 -153 4 -2 122 13 261 32 358
50 404 55 578 66 85 5 178 12 205 16 91 12 39 -6 -71 -26 -314 -55 -667 -127
-920 -189 -109 -27 -201 -48 -203 -46 -2 2 19 67 46 145 28 77 46 140 41 140
-5 0 -18 -5 -29 -11 -11 -5 -79 -21 -152 -34 -73 -13 -229 -42 -347 -64 -118
-22 -314 -59 -435 -82 -121 -22 -251 -48 -290 -57 l-70 -17 84 -3 c103 -4 559
39 816 77 105 15 192 26 194 25 7 -6 -47 -89 -112 -174 -38 -49 -61 -86 -53
-88 6 -1 150 20 320 48 l308 50 111 -44 c721 -282 1582 -331 2487 -141 200 42
493 120 652 172 81 27 144 45 142 41 -3 -4 -25 -22 -50 -39 -25 -17 -43 -33
-41 -35 4 -4 327 98 447 141 61 22 604 185 945 285 464 135 655 194 968 296
293 96 567 192 687 242 284 117 394 167 372 170 -12 2 -95 -4 -185 -12 -89 -8
-216 -18 -282 -21 -66 -3 -158 -7 -205 -10 -79 -4 -83 -3 -55 10 17 8 39 14
50 15 39 1 329 75 495 126 l45 14 -45 -4 c-25 -1 -137 -15 -250 -29 -358 -46
-368 -46 -383 -23 -20 31 -60 117 -56 119 2 1 96 33 209 71 211 71 464 165
458 171 -2 2 -87 -11 -188 -29 -102 -19 -248 -43 -325 -55 -77 -12 -162 -26
-188 -32 -26 -6 -50 -9 -53 -6 -12 12 201 103 406 173 240 81 481 173 527 199
27 16 27 16 3 11 -14 -2 -43 -8 -65 -11 -22 -4 -81 -15 -130 -25 -50 -11 -158
-31 -240 -45 -83 -14 -158 -28 -169 -31 -39 -12 -4 14 86 65 61 35 141 69 233
98 77 25 187 62 245 83 l105 39 -65 -5 c-36 -3 -85 -9 -110 -14 -74 -15 -180
-23 -180 -14 0 9 225 182 306 237 57 37 134 106 134 119 0 17 -355 -1 -873
-43 -142 -12 -260 -19 -263 -16 -3 3 24 65 60 138 36 74 79 177 96 229 33 101
70 258 70 300 0 22 7 28 48 39 113 30 292 130 395 221 242 214 363 636 277
970 -59 234 -199 405 -415 510 -136 65 -182 75 -355 74 -136 -1 -152 -3 -268
-37 -68 -21 -125 -37 -127 -37 -2 0 -17 24 -33 54 -54 95 -183 258 -302 380
-385 395 -861 631 -1440 711 -161 23 -557 28 -730 10z m403 -232 c-40 -2 -107
-2 -150 0 -43 1 -10 3 72 3 83 0 118 -2 78 -3z m120 0 c-7 -2 -19 -2 -25 0 -7
3 -2 5 12 5 14 0 19 -2 13 -5z m-390 -10 c-13 -2 -33 -2 -45 0 -13 2 -3 4 22
4 25 0 35 -2 23 -4z m-110 -10 c-7 -2 -21 -2 -30 0 -10 3 -4 5 12 5 17 0 24
-2 18 -5z m-90 -10 c-7 -2 -19 -2 -25 0 -7 3 -2 5 12 5 14 0 19 -2 13 -5z
m-70 -10 c-7 -2 -19 -2 -25 0 -7 3 -2 5 12 5 14 0 19 -2 13 -5z m-68 -13 c-16
-4 -41 -8 -55 -8 -22 0 -22 1 5 8 17 4 41 8 55 8 22 0 22 -1 -5 -8z m1107 -34
c110 -28 229 -81 355 -160 140 -86 198 -109 257 -102 27 3 54 10 59 15 11 11
-38 48 -113 87 -71 36 -49 40 69 15 132 -29 188 -62 224 -131 31 -62 53 -168
63 -316 8 -125 5 -129 -103 -139 -115 -11 -256 0 -366 29 -138 36 -467 143
-497 162 -15 9 -17 12 -5 8 86 -33 330 -110 422 -134 62 -16 117 -31 123 -35
27 -17 2 170 -39 292 -11 32 -18 60 -16 62 3 2 16 -4 31 -13 54 -36 29 -8 -65
73 -118 100 -167 132 -286 184 -152 66 -293 92 -359 67 -37 -14 -104 -77 -133
-127 -14 -24 -38 -82 -53 -128 -15 -47 -29 -88 -32 -91 -3 -3 -22 2 -42 10
-30 13 -35 18 -27 33 5 10 30 62 56 115 66 137 128 203 230 245 40 17 130 9
247 -21z m-1252 7 c-546 -123 -983 -277 -1385 -488 -240 -125 -663 -382 -805
-488 -30 -22 -48 -33 -40 -22 41 51 573 382 840 523 303 160 691 307 1105 418
125 33 304 72 330 72 11 0 -9 -7 -45 -15z m1313 -200 c-7 -2 -19 -2 -25 0 -7
3 -2 5 12 5 14 0 19 -2 13 -5z m137 -53 c19 -11 31 -19 25 -19 -5 0 -26 8 -45
19 -19 11 -30 19 -25 19 6 0 26 -8 45 -19z m-955 -55 c142 -69 335 -283 426
-470 43 -88 47 -111 6 -38 -14 27 -67 93 -118 148 -51 55 -110 122 -133 148
-22 27 -50 53 -61 59 -16 9 -15 5 6 -18 33 -36 45 -59 53 -106 8 -47 23 -50
20 -6 -2 31 -1 32 12 14 8 -11 14 -27 14 -36 0 -9 5 -21 11 -27 8 -8 8 -13 0
-17 -6 -4 -11 -2 -11 3 0 6 -9 11 -20 11 -11 0 -20 -4 -20 -8 0 -11 58 -93 75
-108 8 -5 17 -23 21 -40 8 -33 10 -37 -117 151 -86 127 -189 233 -260 267
l-54 26 -15 -30 c-13 -26 -12 -41 3 -133 20 -116 32 -151 99 -283 34 -69 42
-92 30 -88 -9 3 -39 11 -67 17 -83 20 -114 37 -139 77 -38 58 -50 116 -49 247
1 131 22 216 66 263 34 37 118 28 222 -23z m1045 4 c17 -13 18 -17 5 -10 -33
17 -51 31 -40 31 6 0 21 -10 35 -21z m-1681 -123 c-9 -10 -235 -89 -256 -90
-11 0 -19 -4 -18 -7 2 -3 -73 -36 -168 -74 -621 -246 -1404 -612 -1732 -810
-150 -90 -400 -263 -530 -366 -49 -40 -82 -62 -71 -51 63 71 595 456 806 582
112 68 430 232 570 294 47 21 155 70 240 108 308 139 599 249 935 353 187 59
235 71 224 61z m1221 -61 c14 -8 21 -14 15 -14 -5 0 -21 6 -35 14 -14 8 -20
14 -15 14 6 0 21 -6 35 -14z m70 -30 c14 -8 21 -14 15 -14 -5 0 -21 6 -35 14
-14 8 -20 14 -15 14 6 0 21 -6 35 -14z m577 -117 c-2 -13 -4 -3 -4 22 0 25 2
35 4 23 2 -13 2 -33 0 -45z m668 33 c16 -9 36 -28 43 -42 19 -34 10 -200 -13
-259 -19 -46 -42 -80 -56 -80 -5 0 -5 60 -2 134 3 74 3 142 -1 152 -7 18 -9
18 -26 -4 -20 -24 -66 -42 -87 -35 -16 6 -16 47 -1 113 l12 52 50 -7 c28 -3
64 -14 81 -24z m-2280 -100 c-6 -5 -56 -25 -112 -44 -56 -19 -100 -37 -97 -39
2 -3 -2 -11 -11 -18 -9 -7 -19 -10 -22 -6 -4 4 -1 11 7 16 13 8 13 10 -1 10
-25 0 -42 -25 -26 -38 35 -29 168 -85 312 -130 357 -112 539 -159 743 -192 73
-11 145 -26 160 -31 37 -15 246 -17 307 -2 28 6 88 19 135 28 122 24 168 50
85 47 -23 -1 -35 3 -35 12 0 14 -30 25 -83 32 -16 2 -33 6 -38 9 -5 4 -9 0 -9
-8 0 -8 -12 -18 -26 -21 -31 -8 -142 3 -150 15 -3 5 0 9 5 9 6 0 10 6 8 12 -1
9 16 12 63 11 l65 -2 -108 43 c-59 23 -113 49 -120 56 -7 7 -7 11 -2 8 99 -44
142 -59 350 -123 152 -47 254 -64 430 -72 135 -5 157 -3 291 28 51 12 53 12
138 -29 47 -22 86 -47 86 -53 0 -7 -11 -32 -25 -55 -60 -102 -178 -129 -560
-129 -152 0 -299 6 -355 13 -226 30 -495 92 -1075 247 -319 85 -460 132 -566
187 -185 95 -156 149 104 197 121 22 144 24 132 12z m500 -11 c-4 -6 0 -22 9
-35 9 -13 16 -30 16 -37 -1 -16 -39 52 -40 70 0 6 5 12 11 12 5 0 7 -5 4 -10z
m225 -15 c13 -14 21 -25 18 -25 -2 0 -15 11 -28 25 -13 14 -21 25 -18 25 2 0
15 -11 28 -25z m-174 -17 l29 -32 -32 25 c-18 13 -32 27 -32 32 -1 12 4 8 35
-25z m-39 -94 c-3 -3 -19 2 -36 10 -40 21 -42 20 -30 -10 5 -15 8 -29 5 -31
-2 -2 -11 16 -19 41 l-16 46 51 -26 c27 -14 48 -28 45 -30z m1216 29 c-7 -2
-21 -2 -30 0 -10 3 -4 5 12 5 17 0 24 -2 18 -5z m1564 -48 c95 -18 219 -76
290 -136 241 -202 302 -574 144 -887 -51 -101 -115 -187 -182 -244 -66 -56
-198 -142 -206 -134 -3 3 2 8 11 12 9 3 16 15 16 27 0 11 8 30 18 41 19 23 11
18 -53 -32 -119 -93 -420 -148 -580 -107 -235 62 -399 201 -471 400 -56 154
-53 297 10 465 57 154 191 334 314 423 53 39 183 109 257 139 113 46 292 60
432 33z m-2787 -48 c17 -4 15 -5 -9 -4 -21 1 -36 8 -39 17 -4 12 -2 13 9 3 8
-6 25 -13 39 -16z m-1271 -11 c-2 -2 -121 -47 -264 -100 -505 -187 -1128 -450
-1490 -629 -110 -54 -421 -232 -655 -375 -70 -43 11 15 125 90 216 141 329
205 585 334 439 220 907 412 1545 635 131 45 164 55 154 45z m1359 -3 c-10 -2
-28 -2 -40 0 -13 2 -5 4 17 4 22 1 32 -1 23 -4z m49 -9 c-3 -3 -12 -4 -19 -1
-8 3 -5 6 6 6 11 1 17 -2 13 -5z m86 -11 c-7 -2 -21 -2 -30 0 -10 3 -4 5 12 5
17 0 24 -2 18 -5z m95 -10 c-16 -2 -40 -2 -55 0 -16 2 -3 4 27 4 30 0 43 -2
28 -4z m302 -83 c0 -5 -2 -10 -4 -10 -3 0 -8 5 -11 10 -3 6 -1 10 4 10 6 0 11
-4 11 -10z m713 -37 c-7 -2 -19 -2 -25 0 -7 3 -2 5 12 5 14 0 19 -2 13 -5z
m-1518 -118 c127 -37 246 -71 265 -75 19 -4 32 -8 28 -9 -39 -6 -311 -72 -319
-77 -6 -4 4 -19 25 -36 20 -16 36 -33 36 -36 0 -4 -62 -16 -137 -26 -76 -11
-172 -25 -213 -32 -47 -8 -81 -9 -91 -3 -109 58 133 -151 306 -265 55 -36 114
-75 130 -87 l30 -21 -49 6 c-27 3 -61 6 -75 6 -15 0 -36 7 -47 15 -18 14 -18
15 6 7 14 -5 45 -9 70 -10 41 -2 43 -1 20 10 -30 13 -74 18 -114 11 -26 -5
-27 -7 -11 -15 14 -9 15 -12 4 -20 -11 -8 -11 -9 1 -5 8 2 26 -4 40 -13 82
-57 338 -159 371 -148 6 2 -23 24 -65 48 -42 25 -76 48 -76 52 0 3 44 9 98 13
53 4 142 18 197 33 134 34 328 42 464 18 202 -35 192 -34 179 -19 -9 11 -7 15
10 20 34 8 27 19 -30 43 -58 25 -60 26 -103 16 -23 -6 -20 -2 14 13 24 12 55
21 70 21 40 0 127 -55 187 -118 l54 -57 85 0 c47 0 85 1 85 2 0 1 -9 22 -20
48 -25 59 -25 63 3 38 40 -36 53 -38 24 -4 -15 19 -37 52 -48 75 -17 35 -17
37 -2 18 52 -68 84 -99 150 -148 119 -88 154 -154 119 -222 -38 -74 -180 -174
-316 -222 -36 -13 -71 -28 -79 -34 -11 -9 -13 -6 -6 14 13 43 44 67 152 119
115 56 173 107 173 154 0 15 -4 27 -9 27 -5 0 -14 14 -20 30 -13 39 -49 54
-166 70 -201 28 -299 -41 -234 -165 27 -50 58 -85 87 -96 59 -23 -13 -44 -141
-41 -93 2 -173 27 -272 84 -88 51 -110 69 -153 119 -28 32 -32 42 -22 54 7 8
21 15 32 15 11 0 18 5 15 13 -2 6 -14 12 -26 11 -18 -1 -22 4 -19 21 4 20 2
21 -26 15 -17 -4 -65 -21 -106 -37 -91 -35 -102 -60 -24 -55 49 3 53 2 73 -31
85 -138 362 -263 564 -255 42 2 77 3 77 2 0 -4 -129 -84 -181 -113 -31 -17
-70 -31 -87 -31 -81 0 -351 87 -620 200 -586 246 -778 344 -908 466 -27 24
-51 44 -56 44 -4 0 -8 5 -8 10 0 6 10 8 23 5 76 -17 114 -25 127 -25 8 0 -22
37 -67 83 -90 90 -179 210 -225 301 l-30 59 44 -6 c24 -4 86 -9 138 -12 l95
-6 -110 105 c-60 58 -106 105 -101 106 4 0 36 -7 70 -16 72 -19 237 -23 316
-7 49 9 51 11 20 13 -33 2 -34 2 -10 10 47 16 115 3 345 -65z m-905 -20 c0 -2
-15 -12 -32 -21 -41 -21 -49 -33 -37 -55 13 -25 13 -26 -28 -33 -53 -9 -458
-121 -573 -158 -234 -75 -606 -231 -865 -361 -88 -44 -302 -151 -475 -238
-288 -144 -653 -342 -740 -402 -64 -44 -90 -59 -90 -53 0 9 230 180 315 233
161 101 477 274 735 403 552 276 746 355 1406 568 186 60 348 112 359 115 11
2 21 5 23 6 1 0 2 -1 2 -4z m1824 -190 c77 -13 144 -30 150 -36 8 -9 6 -10 -6
-6 -10 4 -18 2 -18 -3 0 -15 -57 -12 -72 4 -21 20 -58 30 -58 15 0 -8 -5 -5
-13 5 -8 11 -21 16 -33 13 -17 -4 -16 -5 4 -6 12 0 22 -5 22 -9 0 -17 -13 -21
-34 -11 -19 9 -19 8 3 -10 19 -17 38 -21 110 -23 47 0 93 -1 101 -2 18 -1 38
-41 49 -99 11 -61 4 -69 -50 -61 -52 8 -79 27 -179 126 -41 41 -93 89 -115
107 -25 20 -32 30 -20 27 11 -3 83 -17 159 -31z m-1784 -72 c27 -40 52 -94 46
-100 -2 -2 -9 10 -16 26 -18 44 -30 51 -75 41 -22 -4 -62 -11 -88 -15 l-48 -6
45 -50 c29 -33 55 -77 74 -127 36 -93 80 -267 89 -351 l6 -62 94 -44 c52 -25
96 -45 98 -45 9 0 134 -77 170 -104 l40 -31 -20 34 c-11 19 -23 33 -28 32 -12
-3 -69 30 -63 37 4 3 12 0 18 -6 18 -18 30 -14 19 6 -5 9 -37 51 -72 92 -34
41 -50 64 -34 50 15 -14 61 -65 103 -115 41 -49 84 -96 94 -103 10 -7 18 -20
18 -28 0 -8 7 -14 15 -14 16 0 29 -25 86 -165 33 -81 11 -59 -28 28 -28 62
-43 68 -100 46 l-28 -11 25 -9 c33 -13 35 -16 17 -33 -24 -24 -63 -30 -71 -11
-3 9 -4 21 0 26 7 11 8 11 -43 -4 l-43 -13 34 -18 c76 -41 140 -259 102 -346
l-15 -35 -1 36 c-1 96 -68 229 -159 316 -34 33 -51 56 -46 62 24 23 116 60
175 71 82 14 100 19 100 30 0 4 -15 11 -34 14 -19 4 -65 20 -101 37 -153 69
-439 158 -510 159 l-30 0 50 44 50 44 0 93 c0 90 -2 98 -43 181 -33 68 -60
105 -127 174 -46 47 -107 101 -135 119 l-50 32 52 7 c29 3 76 6 103 7 28 0 84
9 125 19 117 27 131 26 160 -17z m1439 -49 c0 -96 20 -137 85 -181 62 -42 100
-43 173 -2 44 25 57 28 64 18 13 -19 -31 -55 -84 -70 -104 -29 -219 -10 -285
46 -51 45 -100 137 -108 208 l-7 57 81 0 81 0 0 -76z m1046 21 c-50 -25 -115
-65 -144 -90 -30 -25 -56 -44 -58 -41 -7 7 25 108 40 127 6 9 19 18 27 22 10
3 7 6 -8 6 -13 1 -20 5 -17 11 4 6 57 10 128 9 l122 0 -90 -44z m260 26 c-3
-6 -11 -11 -17 -11 -6 0 -6 6 2 15 14 17 26 13 15 -4z m-1212 -13 c11 -17 10
-21 -31 -93 l-17 -30 -3 59 c-2 32 -1 65 2 73 7 18 36 13 49 -9z m-1969 -52
c92 -61 136 -125 161 -227 8 -35 14 -75 14 -89 l0 -25 -10 23 c-5 13 -16 31
-26 40 -9 9 -36 46 -59 82 -84 131 -168 183 -256 160 -45 -12 -115 -49 -159
-84 -15 -12 -52 -39 -84 -61 -69 -48 -75 -59 -76 -127 0 -47 -1 -50 -11 -28
-9 20 -12 22 -15 8 -2 -9 1 -26 6 -37 14 -25 14 -81 1 -81 -34 0 19 -71 85
-114 44 -29 128 -57 205 -69 18 -3 16 -5 -10 -6 -69 -2 -168 34 -237 86 -43
33 -92 111 -109 175 -40 153 8 223 228 327 136 65 182 80 247 81 45 0 62 -6
105 -34z m-784 19 c0 -3 -35 -21 -77 -41 -43 -19 -86 -40 -95 -45 -24 -12 -60
-31 -78 -39 -8 -4 -14 -15 -12 -25 2 -9 -1 -14 -7 -11 -5 4 -12 2 -16 -4 -10
-16 -28 -12 -21 5 5 13 2 14 -15 4 -11 -6 -23 -9 -25 -6 -5 5 8 12 206 104
148 68 140 65 140 58z m-27 -65 l32 -1 -25 -14 c-32 -18 -50 -19 -50 -1 0 8
-3 16 -7 19 -5 2 -2 2 5 0 8 -1 28 -3 45 -3z m3807 -64 c0 -60 -25 -107 -72
-137 -46 -28 -105 -20 -135 18 -32 39 -29 46 16 38 26 -4 51 -1 76 10 38 15
38 15 21 -4 -10 -11 -32 -23 -48 -26 -20 -5 -27 -10 -20 -17 11 -11 60 11 80
34 6 8 12 41 13 74 2 72 11 87 45 72 21 -10 24 -18 24 -62z m-3860 30 c0 -7
-110 -56 -124 -56 -6 0 18 14 54 30 71 32 70 32 70 26z m-154 -50 c1 -17 -7
-27 -32 -40 -19 -8 -34 -12 -34 -7 0 5 14 14 30 21 22 9 28 16 20 25 -5 6 -7
15 -3 18 12 13 18 7 19 -17z m417 -14 c-39 -35 -113 -140 -113 -160 0 -5 -7
-15 -16 -23 -15 -12 -15 -62 2 -179 l5 -35 -21 25 -21 25 6 -30 6 -30 -14 25
c-8 14 -20 59 -27 101 -10 62 -10 85 2 132 8 31 12 57 8 57 -24 0 -103 -65
-116 -95 -15 -36 -19 -115 -6 -115 12 0 32 -74 21 -81 -5 -3 -7 -14 -3 -25 6
-16 5 -17 -7 -6 -7 6 -17 12 -22 12 -14 0 19 -46 61 -85 20 -19 34 -35 29 -35
-21 0 -103 92 -128 145 -32 66 -36 114 -17 195 14 59 28 70 163 124 50 20 122
49 160 65 92 39 98 38 48 -7z m492 -23 c50 -7 104 -13 120 -13 56 -2 92 -60
94 -150 l0 -39 -21 19 -22 19 17 -25 c38 -56 13 -46 -30 12 -59 77 -134 120
-211 121 -43 1 -55 -4 -87 -32 -31 -27 -43 -32 -69 -27 -17 4 -44 20 -61 36
-29 29 -29 30 -10 46 11 8 13 12 5 8 -13 -7 -13 -6 -1 10 25 31 69 42 130 34
31 -4 97 -13 146 -19z m2762 10 c11 -4 24 -12 27 -18 4 -6 -9 -4 -28 4 -40 17
-79 19 -104 6 -9 -4 -35 -11 -57 -14 -30 -5 -36 -4 -22 4 10 6 32 12 49 15 17
2 36 8 42 14 10 10 48 6 93 -11z m-3837 -14 c-14 -8 -29 -14 -35 -14 -5 0 1 6
15 14 14 8 30 14 35 14 6 0 -1 -6 -15 -14z m-55 -24 c-3 -5 5 -11 17 -13 l23
-3 -24 -14 c-16 -9 -26 -10 -34 -2 -7 7 -19 5 -41 -6 -33 -18 -62 -26 -51 -15
5 6 103 59 113 61 2 1 1 -3 -3 -8z m70 -21 c-9 -15 -65 -42 -65 -32 0 5 15 16
33 25 39 19 40 19 32 7z m-90 -20 c3 -5 -1 -10 -10 -10 -9 0 -13 5 -10 10 3 6
8 10 10 10 2 0 7 -4 10 -10z m10 -29 c-12 -11 -85 -42 -85 -36 0 6 73 44 85
45 5 0 5 -3 0 -9z m-127 -21 c15 -1 15 -2 -1 -11 -9 -6 -26 -8 -36 -4 -11 3
-33 -3 -53 -15 -18 -11 -37 -20 -43 -20 -5 0 13 14 40 30 28 16 56 28 63 25 8
-3 21 -5 30 -5z m339 -45 c-7 -14 -18 -25 -24 -25 -7 0 -43 -29 -80 -64 -65
-60 -98 -89 -207 -181 -26 -22 -53 -51 -60 -64 l-13 -24 -7 28 c-6 22 -3 33
12 44 11 9 64 51 118 95 55 43 124 102 154 131 55 52 98 85 111 85 4 0 2 -11
-4 -25z m1528 -84 c6 -30 6 -33 -7 -20 -7 8 -15 32 -16 54 -1 44 9 28 23 -34z
m2670 33 c3 -20 4 -39 1 -42 -3 -3 -6 5 -6 17 l0 22 -39 -23 c-22 -12 -37 -26
-35 -30 3 -5 0 -8 -5 -8 -6 0 -11 4 -11 9 0 5 -9 13 -20 16 -11 3 -20 10 -20
14 0 7 104 59 121 60 4 1 10 -15 14 -35z m-4215 -40 c0 -47 -2 -55 -14 -45 -8
7 -12 19 -11 29 18 91 25 95 25 16z m3767 50 c-3 -3 -12 -4 -19 -1 -8 3 -5 6
6 6 11 1 17 -2 13 -5z m-3530 -51 c-3 -10 -5 -2 -5 17 0 19 2 27 5 18 2 -10 2
-26 0 -35z m694 30 c13 -16 12 -17 -3 -4 -17 13 -22 21 -14 21 2 0 10 -8 17
-17z m-198 -30 c-7 -2 -19 -2 -25 0 -7 3 -2 5 12 5 14 0 19 -2 13 -5z m137 -3
c26 0 58 -15 50 -24 -3 -2 -39 4 -80 15 -41 11 -57 17 -35 14 22 -3 51 -5 65
-5z m303 -22 c6 -22 5 -22 -8 -4 -17 22 -20 40 -6 32 5 -3 11 -16 14 -28z
m2664 -51 c13 -14 -7 -18 -89 -19 -101 -1 -138 2 -138 13 0 4 15 10 33 12 44
7 186 2 194 -6z m1914 -15 c-20 -37 -149 -179 -203 -222 -69 -56 -202 -122
-300 -151 -103 -29 -298 -37 -392 -15 -71 17 -207 77 -188 84 5 1 54 -8 108
-23 145 -37 302 -36 445 4 192 55 341 140 463 266 39 40 72 74 74 74 1 1 -2
-7 -7 -17z m-1596 -32 c-4 -17 -9 -30 -11 -27 -2 2 -1 18 2 36 4 17 9 30 11
27 3 -2 2 -19 -2 -36z m-3820 -40 c16 -16 24 -30 18 -30 -7 0 -21 14 -33 30
-12 17 -20 30 -18 30 3 0 17 -13 33 -30z m742 -12 c-3 -7 -5 -2 -5 12 0 14 2
19 5 13 2 -7 2 -19 0 -25z m-139 -35 c-16 -2 -40 -2 -55 0 -16 2 -3 4 27 4 30
0 43 -2 28 -4z m3498 -21 c60 -44 149 -131 141 -138 -4 -4 -14 -1 -23 7 -9 7
-29 12 -45 11 -16 -1 -29 2 -29 8 0 6 -15 17 -32 25 -29 11 -36 11 -60 -3 -16
-9 -28 -19 -28 -22 0 -15 14 -19 33 -8 16 8 23 7 33 -6 15 -21 6 -59 -12 -52
-10 4 -11 -1 -4 -19 14 -36 4 -31 -24 13 -13 21 -47 64 -77 96 -51 56 -52 59
-34 73 29 22 77 42 101 43 12 0 39 -13 60 -28z m-4735 -111 c-37 -46 -39 -66
-8 -99 21 -24 21 -24 1 -14 -22 12 -47 56 -58 105 -6 26 -5 27 33 27 22 0 43
5 46 10 3 6 9 10 11 10 3 0 -8 -18 -25 -39z m4553 16 c44 -25 100 -100 116
-155 5 -20 10 -59 10 -87 0 -59 -12 -49 -36 33 -11 37 -31 69 -67 108 -60 64
-83 79 -100 66 -7 -5 -26 -12 -43 -15 -30 -6 -31 -5 -20 18 11 24 58 53 86 54
8 0 33 -9 54 -22z m203 -13 c-3 -3 -12 -4 -19 -1 -8 3 -5 6 6 6 11 1 17 -2 13
-5z m-252 -34 c3 -6 -1 -7 -9 -4 -18 7 -21 14 -7 14 6 0 13 -4 16 -10z m-2952
-35 c-3 -9 -8 -14 -10 -11 -3 3 -2 9 2 15 9 16 15 13 8 -4z m-2922 -12 c-5
-10 -17 -27 -26 -38 -16 -19 -16 -19 -4 5 13 27 29 50 36 50 2 0 -1 -8 -6 -17z
m5677 -28 c24 -10 41 -20 38 -23 -9 -8 -86 -8 -86 1 0 15 -82 6 -119 -13 -83
-42 -137 -108 -132 -162 2 -19 -8 -38 -34 -65 l-35 -38 5 30 c3 17 2 24 -1 17
-3 -6 -10 -10 -14 -7 -9 6 -31 -37 -50 -97 -14 -45 -25 -50 -16 -8 5 28 4 30
-15 20 -11 -6 -24 -23 -30 -37 -5 -14 -12 -23 -15 -21 -11 12 37 122 71 164
37 45 51 55 41 29 -13 -34 5 -11 47 63 54 93 111 148 172 165 34 10 128 0 173
-18z m-2799 -51 c-19 -31 -54 -74 -79 -96 -64 -56 -203 -138 -274 -160 -65
-21 -269 -38 -251 -21 6 5 62 24 125 42 192 55 366 154 477 271 40 42 41 29 2
-36z m951 26 c0 -5 -5 -10 -11 -10 -5 0 -7 5 -4 10 3 6 8 10 11 10 2 0 4 -4 4
-10z m640 -25 c28 -14 50 -22 50 -19 0 4 3 5 6 1 12 -12 -107 -115 -283 -245
-153 -113 -154 -114 -88 -37 36 41 50 63 35 54 -175 -109 -340 -201 -340 -189
0 4 9 28 21 54 11 25 36 113 54 194 19 81 37 152 39 158 2 5 60 16 127 23 68
7 156 16 194 21 116 12 134 11 185 -15z m1128 8 c-10 -2 -26 -2 -35 0 -10 3
-2 5 17 5 19 0 27 -2 18 -5z m262 -101 c71 -36 111 -92 112 -156 1 -26 -3 -51
-8 -56 -5 -5 -8 8 -6 33 5 65 -38 116 -120 144 -130 45 -192 39 -219 -18 -11
-21 -13 -36 -7 -40 5 -3 2 -9 -8 -13 -9 -3 -18 -5 -19 -4 -6 7 27 95 43 116
37 47 132 45 232 -6z m686 -17 c16 -42 -50 -283 -112 -408 -95 -191 -232 -336
-319 -337 -16 0 -4 17 50 73 132 138 256 384 316 629 10 42 19 52 52 57 4 0
10 -6 13 -14z m159 -47 c-24 -204 -113 -425 -231 -579 -52 -68 -77 -88 -47
-38 11 19 36 62 57 95 77 130 151 325 176 464 14 77 26 110 40 110 7 0 9 -18
5 -52z m-864 11 c36 -15 61 -33 72 -51 9 -15 12 -28 8 -28 -5 0 -11 6 -14 14
-8 21 -107 73 -154 81 -25 4 -50 2 -63 -5 -24 -13 -36 -8 -25 11 11 17 110 5
176 -22z m-1063 -11 l64 -22 -7 -41 c-3 -22 -10 -44 -14 -48 -5 -5 -35 -2 -67
7 -110 27 -178 25 -228 -9 -50 -34 -59 -31 -17 5 l34 29 -29 -5 c-38 -7 -90
-38 -86 -53 1 -6 -2 -10 -8 -8 -5 1 -59 -27 -119 -63 -75 -44 -111 -71 -111
-83 0 -16 3 -16 36 -2 20 8 38 15 40 15 2 0 4 6 4 14 0 8 17 15 48 19 26 4 58
9 72 13 20 5 22 4 10 -6 -12 -9 0 -10 54 -8 50 3 72 9 81 21 8 11 19 15 31 11
11 -3 0 6 -23 21 -63 39 -52 49 12 12 30 -17 54 -36 52 -41 -2 -6 -23 -16 -48
-24 -105 -31 -429 -125 -489 -142 -91 -26 -271 -62 -277 -57 -2 3 11 8 29 12
71 15 399 191 610 327 143 92 214 128 252 128 17 0 60 -10 94 -22z m-2371 -4
c-3 -3 -12 -4 -19 -1 -8 3 -5 6 6 6 11 1 17 -2 13 -5z m-92 -23 c-7 -12 -88
-25 -107 -18 -7 2 7 9 32 15 59 13 82 14 75 3z m2829 -68 c-58 -89 -74 -141
-88 -293 -6 -71 -14 -132 -18 -135 -11 -11 -40 48 -50 105 -10 52 -9 68 11
137 13 43 32 93 42 112 26 44 20 48 -16 11 -16 -17 -34 -30 -40 -30 -13 0 -84
-75 -103 -109 -43 -75 -56 -225 -26 -284 l17 -32 -23 20 -23 20 11 -20 c18
-34 65 -73 115 -95 26 -11 47 -23 47 -25 0 -6 -54 11 -86 28 -63 33 -131 137
-121 187 3 14 2 43 -3 63 -4 20 -5 35 -1 32 5 -2 8 15 8 38 1 61 48 170 94
216 31 33 54 45 126 66 48 15 104 33 123 40 19 7 38 13 42 14 3 1 -14 -29 -38
-66z m-1836 40 c-9 -10 -22 -32 -31 -48 -18 -36 -57 -77 -111 -116 -46 -34
-61 -37 -44 -9 11 17 10 22 -1 29 -8 5 -24 7 -35 4 -60 -15 -221 0 -209 20 3
5 -7 7 -23 4 -75 -14 -108 -17 -94 -8 8 5 60 17 115 26 93 16 132 27 335 90
41 12 84 23 94 24 17 1 18 -1 4 -16z m2413 -88 c75 -38 97 -61 114 -119 14
-45 14 -52 0 -65 -14 -14 -15 -13 -10 14 6 27 -17 105 -30 105 -3 0 2 -16 10
-36 21 -51 19 -57 -12 -27 -31 28 -64 44 -105 49 -15 2 -51 13 -80 24 -34 13
-66 18 -92 15 l-41 -5 45 15 c25 8 53 15 63 15 10 0 16 4 13 8 -2 4 4 9 15 9
10 1 19 -5 19 -13 0 -9 -11 -14 -32 -15 -31 -1 -30 -1 17 -19 28 -10 61 -19
75 -19 14 -1 40 -10 59 -22 35 -21 53 -19 30 3 -8 7 -26 19 -41 27 -16 8 -28
18 -28 23 0 4 -6 8 -14 8 -8 0 -18 5 -22 11 -4 8 1 9 17 5 22 -7 23 -6 4 5
-33 21 -166 24 -203 5 -42 -22 -41 -12 1 15 46 29 153 21 228 -16z m-174 -1
c-3 -3 -12 -4 -19 -1 -8 3 -5 6 6 6 11 1 17 -2 13 -5z m-2154 -49 c-3 -8 -9
-15 -15 -15 -5 0 -34 -27 -64 -59 -56 -61 -149 -117 -267 -161 -32 -12 -56
-24 -53 -27 7 -7 43 7 163 63 98 45 166 87 157 96 -3 3 0 9 7 14 8 4 10 3 5
-4 -4 -7 -2 -12 4 -12 19 0 100 88 94 104 -3 7 -1 17 5 20 6 4 9 -4 8 -18 -6
-79 -238 -220 -497 -302 -240 -76 -564 -84 -875 -23 -103 20 -278 69 -271 76
2 2 58 -10 125 -27 138 -34 282 -45 596 -45 210 1 340 23 490 82 163 64 224
101 305 184 70 71 97 89 83 54z m2059 3 c-7 -7 -12 -8 -12 -2 0 14 12 26 19
19 2 -3 -1 -11 -7 -17z m548 -28 c0 -5 -5 -10 -11 -10 -5 0 -7 5 -4 10 3 6 8
10 11 10 2 0 4 -4 4 -10z m83 3 c-7 -2 -21 -2 -30 0 -10 3 -4 5 12 5 17 0 24
-2 18 -5z m-906 -45 c-3 -8 -6 -5 -6 6 -1 11 2 17 5 13 3 -3 4 -12 1 -19z
m-2027 -2 c0 -2 -9 -6 -20 -9 -11 -3 -18 -1 -14 4 5 9 34 13 34 5z m1589 -39
c-16 -24 -36 -60 -43 -81 l-13 -38 -22 35 c-24 40 -28 40 -99 -1 -24 -13 -45
-22 -48 -19 -5 4 27 25 116 75 25 14 61 35 80 48 53 35 63 29 29 -19z m-1669
1 c-97 -59 -197 -98 -294 -113 -55 -9 -116 -14 -135 -11 -20 3 -55 7 -78 8
l-42 2 35 34 c19 19 37 33 39 31 5 -6 -18 -34 -40 -48 -16 -10 6 -11 120 -7
156 5 225 23 345 89 71 39 106 50 50 15z m2483 -13 c59 -29 142 -105 153 -137
4 -13 0 -26 -11 -37 -16 -15 -17 -15 -7 5 9 16 7 26 -5 45 -24 34 -71 76 -118
103 -46 27 -111 45 -101 27 4 -6 -2 -15 -15 -20 -20 -7 -17 -9 22 -15 52 -8
153 -63 189 -101 19 -21 9 -16 -41 17 -70 48 -184 84 -238 76 -27 -4 -29 -3
-20 21 6 14 18 32 27 39 25 20 102 10 165 -23z m-2978 -4 c12 -5 -17 -8 -70
-8 -71 0 -80 1 -45 7 62 10 92 10 115 1z m955 -35 c0 -2 -8 -10 -17 -17 -16
-13 -17 -12 -4 4 13 16 21 21 21 13z m2410 -6 c0 -5 -4 -10 -10 -10 -5 0 -10
5 -10 10 0 6 5 10 10 10 6 0 10 -4 10 -10z m93 3 c-7 -2 -21 -2 -30 0 -10 3
-4 5 12 5 17 0 24 -2 18 -5z m-723 -47 c0 -3 -4 -8 -10 -11 -5 -3 -10 -1 -10
4 0 6 5 11 10 11 6 0 10 -2 10 -4z m-1840 -36 c-8 -5 -19 -10 -25 -10 -5 0 -3
5 5 10 8 5 20 10 25 10 6 0 3 -5 -5 -10z m1818 -22 c-38 -36 -93 -107 -87
-111 13 -9 79 -27 96 -27 11 0 42 23 71 54 l51 53 24 -26 c14 -14 28 -37 32
-51 6 -23 5 -22 -13 5 -10 17 -27 37 -37 45 -18 14 -18 14 -2 -9 12 -19 14
-28 5 -38 -6 -8 -10 -37 -9 -66 2 -68 -6 -104 -25 -104 -11 0 -14 7 -9 26 18
75 18 77 4 63 -10 -9 -14 -36 -13 -85 l1 -72 -17 53 c-19 61 -34 78 -114 126
-73 44 -100 46 -120 8 -31 -60 17 -124 145 -192 81 -43 67 -55 -18 -16 -78 37
-140 103 -148 159 -4 25 -4 54 -1 65 11 35 127 146 165 158 54 18 55 17 19
-18z m-623 -62 c0 -46 -3 -79 -7 -73 -10 16 -10 157 0 157 4 0 7 -38 7 -84z
m-115 9 c-7 -45 -7 -46 -9 -13 -1 32 8 74 14 66 1 -2 -1 -25 -5 -53z m1587 49
c-3 -3 -12 -4 -19 -1 -8 3 -5 6 6 6 11 1 17 -2 13 -5z m-742 -14 c3 -5 2 -10
-4 -10 -5 0 -13 5 -16 10 -3 6 -2 10 4 10 5 0 13 -4 16 -10z m430 -26 c-19
-15 -13 -16 80 -12 84 5 90 4 40 -3 -33 -5 -84 -13 -112 -17 -29 -5 -53 -6
-53 -3 0 10 44 51 54 51 6 0 2 -8 -9 -16z m68 9 c-7 -2 -21 -2 -30 0 -10 3 -4
5 12 5 17 0 24 -2 18 -5z m224 1 c-3 -3 -12 -4 -19 -1 -8 3 -5 6 6 6 11 1 17
-2 13 -5z m-54 -11 c-7 -2 -21 -2 -30 0 -10 3 -4 5 12 5 17 0 24 -2 18 -5z
m-1494 -108 c0 -5 -4 -3 -9 5 -5 8 -9 22 -9 30 0 16 17 -16 18 -35z m115 -21
c3 -8 2 -12 -4 -9 -6 3 -10 10 -10 16 0 14 7 11 14 -7z m1326 -21 c-14 -2 -54
-10 -90 -19 -71 -16 -332 -45 -340 -38 -11 12 32 23 154 38 130 16 198 22 266
23 22 0 26 -1 10 -4z m-3741 -7 c-2 -2 -123 -23 -269 -46 -146 -23 -355 -57
-465 -76 -110 -20 -398 -69 -640 -110 -368 -62 -638 -112 -765 -140 -14 -3
-22 -3 -19 1 21 20 951 214 1154 240 72 9 303 41 515 70 212 30 399 56 415 58
46 6 79 7 74 3z m2476 -34 c-3 -3 -11 0 -18 7 -9 10 -8 11 6 5 10 -3 15 -9 12
-12z m2625 10 c0 -4 -35 -24 -78 -44 -87 -40 -213 -135 -230 -173 -6 -14 -16
-25 -22 -25 -6 0 -8 5 -5 10 10 16 -1 11 -16 -7 -12 -15 -12 -16 1 -8 13 8 13
7 1 -8 -7 -9 -18 -17 -23 -17 -5 0 -33 -20 -61 -44 -70 -60 -198 -165 -462
-379 -182 -147 -347 -285 -272 -227 17 14 21 12 43 -15 37 -45 156 -290 152
-311 -3 -20 -55 -49 -104 -59 l-29 -6 28 16 c33 19 34 25 5 19 -21 -4 -21 -4
1 6 14 6 31 8 39 5 12 -4 12 -3 3 9 -6 7 -42 72 -79 143 -37 72 -74 140 -83
153 l-15 23 -100 -68 c-54 -37 -133 -94 -174 -126 -41 -32 -111 -85 -155 -117
-44 -32 -107 -79 -140 -103 -279 -205 -681 -475 -827 -555 -57 -31 -122 -70
-146 -87 -24 -16 -46 -27 -49 -24 -2 3 17 20 44 39 106 72 414 311 522 404
176 153 268 229 371 306 143 108 276 214 365 293 157 137 275 247 275 255 0
15 -45 15 -64 0 -11 -8 -44 -39 -75 -67 -56 -53 -91 -72 -55 -31 10 12 13 18
7 14 -16 -9 -16 -1 -3 25 6 10 15 19 21 19 6 0 7 -5 3 -11 -4 -8 0 -8 15 0 25
14 28 23 4 14 -12 -5 -14 -3 -8 7 12 20 -17 1 -62 -40 -21 -19 -49 -43 -63
-52 -14 -8 -70 -53 -124 -99 -92 -78 -187 -156 -362 -298 -42 -34 -69 -63 -66
-72 2 -9 1 -10 -5 -3 -5 8 -61 -29 -172 -112 -91 -68 -166 -124 -168 -124 -10
0 7 15 95 81 127 96 480 377 557 444 33 28 132 110 220 182 88 72 169 140 180
153 l20 22 -29 51 c-75 137 -222 385 -240 406 -21 23 -23 23 -156 18 -74 -3
-144 -9 -155 -13 -14 -5 -17 -4 -10 3 15 16 160 40 340 57 287 27 407 37 409
34 2 -2 36 -68 76 -148 40 -80 76 -147 81 -150 6 -4 -55 -80 -65 -80 -2 0 -1
10 1 23 2 12 -4 34 -14 48 -38 55 -91 136 -117 177 l-28 44 -129 -4 c-71 -1
-129 -4 -129 -5 0 -2 15 -26 33 -55 19 -29 60 -102 92 -163 100 -190 138 -251
144 -233 3 9 28 40 54 68 l48 52 23 -21 c12 -11 30 -21 39 -21 9 0 19 -4 22
-10 3 -5 26 -10 51 -10 48 0 54 -6 27 -26 -10 -7 -13 -14 -6 -14 6 0 60 44
120 98 59 53 143 128 186 165 70 63 86 88 54 86 -9 0 -9 -2 0 -5 11 -5 -79
-94 -95 -94 -4 0 14 18 40 40 32 28 45 46 41 57 -5 13 -1 15 20 9 29 -7 35 -2
143 98 29 26 62 55 74 63 38 27 8 33 -123 26 l-127 -6 -100 -93 c-118 -109
-160 -141 -160 -122 -1 8 -4 7 -10 -4 -6 -9 -25 -27 -43 -38 -21 -15 -14 -5
21 29 30 28 57 49 62 46 5 -3 12 0 16 6 4 8 3 9 -4 5 -7 -4 -12 -4 -11 1 0 4
47 49 104 98 58 50 105 93 105 96 0 3 -48 4 -107 1 -60 -2 -106 -2 -103 1 11
11 337 47 570 62 135 9 250 18 255 20 18 6 35 5 35 -3z m-4470 -72 c-8 -5 -28
-9 -45 -9 -30 2 -30 2 5 9 51 11 57 11 40 0z m2503 -41 c-22 -37 -53 -67 -53
-51 0 7 3 12 8 12 4 0 18 16 31 35 29 43 39 46 14 4z m-2943 10 c-77 -32 -560
-127 -850 -169 -358 -51 -604 -89 -757 -115 -303 -53 -871 -156 -965 -175 -53
-11 -112 -19 -130 -19 -23 1 -11 6 37 15 76 15 151 32 410 93 353 83 847 176
1310 246 94 15 226 35 295 45 69 11 211 31 315 45 105 15 215 30 245 34 30 5
69 9 85 9 30 1 30 1 5 -9z m4510 -16 c0 -5 -18 -21 -40 -36 -26 -18 -38 -23
-34 -13 4 9 1 16 -6 16 -7 0 -2 9 11 20 23 19 69 27 69 13z m-1910 -62 c-17
-10 -217 -42 -410 -66 -69 -9 -132 -18 -140 -20 -8 -2 -170 -23 -360 -45 -992
-118 -1527 -186 -2129 -271 -194 -27 -355 -48 -357 -46 -3 2 109 23 248 46
139 23 359 59 488 81 635 109 1437 211 2300 295 91 8 201 19 245 24 114 12
133 12 115 2z m-5513 -78 c-3 -10 -5 -2 -5 17 0 19 2 27 5 18 2 -10 2 -26 0
-35z m5887 -153 c28 -10 56 -57 56 -93 0 -33 -93 -359 -126 -441 -58 -145
-193 -214 -460 -236 -181 -14 -182 -14 -194 -59 -6 -20 -25 -88 -43 -151 l-32
-115 -125 -12 c-69 -6 -137 -14 -152 -17 -16 -3 -28 -2 -28 2 0 4 27 106 61
227 154 554 238 838 249 845 6 4 59 10 116 14 58 4 119 9 135 13 30 6 30 6 23
-32 l-7 -37 42 30 c48 35 64 39 210 57 131 16 242 18 275 5z m-4169 -117 l-32
-98 -64 -7 c-210 -23 -244 -26 -246 -24 -1 1 9 33 22 71 13 39 26 82 29 96 5
25 9 26 138 41 73 8 145 16 159 16 l26 2 -32 -97z m3137 57 c45 -13 78 -52 78
-92 0 -33 -43 -199 -65 -252 -36 -85 -128 -124 -351 -151 -77 -10 -151 -23
-165 -31 -30 -15 -52 -61 -47 -96 3 -22 6 -23 88 -21 47 2 155 11 240 22 85
11 157 17 159 15 7 -7 -31 -133 -43 -142 -31 -25 -341 -64 -526 -66 -125 -1
-174 17 -203 74 -24 46 -17 99 37 299 56 201 77 250 136 305 81 76 140 97 320
116 58 6 141 14 185 19 114 12 116 12 157 1z m-3549 -70 c-3 -10 -10 -24 -17
-29 -17 -14 -531 -91 -875 -131 -180 -20 -238 -21 -109 -1 40 7 161 28 268 47
107 20 311 55 453 79 142 24 261 46 264 49 13 12 21 5 16 -14z m2788 -97 l-36
-108 -35 -3 c-91 -8 -167 -34 -232 -78 -37 -25 -69 -53 -72 -62 -82 -276 -126
-429 -126 -444 0 -10 -1 -18 -2 -18 -297 -37 -290 -37 -282 -2 39 165 202 743
213 754 6 7 284 39 289 33 3 -3 -14 -72 -25 -103 -4 -9 18 5 48 32 78 71 153
101 260 105 l37 1 -37 -107z m-681 41 c0 -4 -34 -124 -75 -268 -41 -143 -86
-308 -101 -366 -53 -214 -82 -289 -131 -341 -92 -98 -190 -124 -531 -140 -123
-5 -226 -8 -228 -6 -2 1 10 45 25 97 l28 95 181 7 c210 7 280 19 322 55 30 25
66 81 57 89 -2 2 -67 -5 -143 -16 -188 -28 -288 -16 -328 41 -26 38 -20 137
18 284 45 173 69 233 112 283 78 92 175 125 439 153 105 11 219 24 255 28 88
11 100 12 100 5z m3710 -38 c0 -2 -34 -29 -75 -61 -41 -31 -75 -60 -75 -64 0
-6 12 -28 141 -261 41 -74 80 -146 87 -160 7 -14 21 -36 31 -49 l19 -25 113
17 c267 38 275 32 47 -32 -202 -58 -695 -156 -883 -177 l-40 -4 40 15 c22 9
112 36 200 61 88 25 176 51 196 59 20 7 77 23 128 35 50 12 93 26 96 31 5 7
-64 146 -168 339 -16 30 -38 80 -49 110 -18 52 -18 55 -1 68 11 8 19 9 21 3 4
-13 63 17 122 63 46 36 50 39 50 32z m-4642 -52 c14 -9 22 -26 22 -43 0 -37
-117 -496 -140 -547 -57 -130 -165 -183 -405 -199 -49 -3 -106 -8 -126 -11
l-36 -5 -38 -138 -37 -138 -117 -12 c-64 -7 -131 -15 -150 -18 -31 -5 -33 -4
-27 13 4 10 75 249 158 529 82 281 153 513 156 517 9 9 547 65 642 67 54 1 82
-3 98 -15z m-856 -77 c-9 -10 -147 -457 -215 -697 -19 -67 -28 -85 -43 -86
-10 -1 -74 -5 -141 -9 -68 -4 -123 -5 -123 -3 0 13 220 770 225 776 4 4 225
29 274 31 26 1 31 -2 23 -12z m4658 -137 c0 -5 -5 -10 -11 -10 -5 0 -7 5 -4
10 3 6 8 10 11 10 2 0 4 -4 4 -10z m35 -10 c-3 -5 -11 -10 -16 -10 -6 0 -7 5
-4 10 3 6 11 10 16 10 6 0 7 -4 4 -10z m-35 -24 c0 -2 -8 -10 -17 -17 -16 -13
-17 -12 -4 4 13 16 21 21 21 13z m-50 -39 c0 -2 -10 -12 -22 -23 l-23 -19 19
23 c18 21 26 27 26 19z m-60 -51 c0 -12 -397 -326 -455 -360 -40 -24 -17 -5
96 80 51 40 153 119 224 178 132 107 135 109 135 102z m855 -206 c3 -6 -4 -10
-17 -10 -20 -1 -89 -22 -141 -45 -13 -5 -16 -3 -12 7 8 22 43 38 100 47 28 5
53 9 57 10 4 0 10 -3 13 -9z m-315 -59 c-8 -5 -28 -11 -45 -14 l-30 -6 30 14
c34 16 72 21 45 6z m-110 -36 c-19 -7 -44 -13 -55 -13 -11 0 -2 5 20 13 53 17
80 17 35 0z m-63 -51 c-3 -3 -12 -4 -19 -1 -8 3 -5 6 6 6 11 1 17 -2 13 -5z
m-227 -34 c-8 -5 -22 -9 -30 -9 -10 0 -8 3 5 9 27 12 43 12 25 0z m-631 -3
c-2 -2 -24 -18 -49 -36 l-45 -33 40 36 c22 20 44 36 49 36 5 0 7 -1 5 -3z
m-1109 -36 c-18 -10 -306 -73 -435 -95 -105 -18 -505 -68 -720 -91 -82 -8
-168 -18 -190 -20 l-40 -6 27 16 c88 50 256 79 723 125 299 29 595 66 604 76
2 2 14 4 25 4 17 -1 18 -2 6 -9z m1565 -11 c-27 -12 -43 -12 -25 0 8 5 22 9
30 9 10 0 8 -3 -5 -9z m-585 -44 c0 -2 -8 -10 -17 -17 -16 -13 -17 -12 -4 4
13 16 21 21 21 13z m-140 -50 c0 -3 -15 -14 -32 -26 l-33 -22 30 26 c31 27 35
29 35 22z m-75 -56 c-3 -5 -16 -15 -28 -21 -19 -9 -19 -8 3 10 28 23 34 26 25
11z m-425 -74 c0 -8 -361 -193 -480 -246 -314 -140 -713 -245 -1069 -280 -257
-25 -672 -5 -919 44 -123 24 -432 114 -432 125 0 4 42 13 93 20 239 34 311 47
577 107 157 36 321 74 366 84 140 34 579 103 729 114 56 4 44 1 -60 -19 -256
-47 -539 -110 -1015 -225 -135 -32 -283 -66 -329 -74 -94 -18 -104 -23 -70
-30 84 -19 349 -67 429 -78 141 -19 582 -16 740 6 168 23 307 50 410 80 238
69 647 221 679 252 17 15 14 15 -179 -41 -422 -122 -639 -164 -1040 -201 -150
-13 -308 -19 -299 -9 3 2 70 9 150 14 256 19 504 67 1019 202 447 116 700 172
700 155z m-2702 -31 c-12 -27 -16 -28 -193 -50 -71 -9 -133 -19 -137 -21 -4
-3 -8 -1 -8 5 0 6 12 13 28 17 15 3 43 12 62 20 27 11 193 46 252 53 4 1 3
-10 -4 -24z m3577 -35 c-11 -5 -27 -9 -35 -9 -9 0 -8 4 5 9 11 5 27 9 35 9 9
0 8 -4 -5 -9z m-3943 -349 c234 -85 655 -167 978 -191 166 -12 417 -12 565 0
177 16 438 62 597 106 85 23 116 29 106 19 -8 -8 -303 -82 -418 -104 -246 -49
-634 -78 -875 -67 -329 16 -675 75 -905 154 -155 54 -230 84 -230 93 0 17 128
10 182 -10z"/>
<path d="M7525 7808 c-85 -44 -128 -78 -116 -92 12 -14 57 -192 66 -258 3 -27
11 -48 17 -48 5 0 8 6 5 14 -3 7 -8 35 -12 62 -4 27 -18 91 -32 143 -17 66
-21 97 -14 104 8 8 11 2 11 -21 0 -26 4 -32 18 -30 23 4 41 28 35 48 -3 10 1
9 11 -4 9 -11 16 -24 16 -29 0 -5 20 -56 45 -113 25 -56 45 -112 45 -122 0
-13 9 -21 28 -25 15 -3 29 -3 32 0 11 11 -2 179 -20 247 -20 80 -49 148 -65
152 -5 2 -37 -11 -70 -28z"/>
<path d="M5876 7796 c-9 -21 -18 -71 -21 -110 l-4 -71 10 65 c5 36 17 80 25
98 8 18 13 38 11 45 -2 7 -12 -5 -21 -27z"/>
<path d="M5851 7532 c9 -81 52 -209 76 -228 21 -16 62 -29 69 -21 3 3 -15 45
-41 93 -25 49 -43 77 -40 61 5 -27 5 -27 -13 -9 -20 20 -42 92 -42 136 0 14
-4 27 -8 30 -4 3 -5 -25 -1 -62z m68 -165 c11 -26 18 -47 15 -47 -5 0 -44 86
-44 97 0 12 9 -4 29 -50z"/>
<path d="M5000 7583 c-25 -9 -40 -18 -34 -20 6 -2 31 5 55 16 53 24 41 26 -21
4z"/>
<path d="M7941 7464 c0 -11 3 -14 6 -6 3 7 2 16 -1 19 -3 4 -6 -2 -5 -13z"/>
<path d="M7951 6930 c-13 -11 -19 -20 -14 -20 6 0 18 9 28 20 23 25 17 25 -14
0z"/>
<path d="M6818 6883 c12 -2 32 -2 45 0 12 2 2 4 -23 4 -25 0 -35 -2 -22 -4z"/>
<path d="M6913 6873 c9 -2 25 -2 35 0 9 3 1 5 -18 5 -19 0 -27 -2 -17 -5z"/>
<path d="M6988 6863 c6 -2 18 -2 25 0 6 3 1 5 -13 5 -14 0 -19 -2 -12 -5z"/>
<path d="M8655 7193 c-86 -13 -212 -46 -248 -65 -191 -96 -338 -276 -403 -493
-23 -76 -27 -109 -28 -215 0 -116 2 -130 28 -195 36 -86 65 -134 119 -192 41
-45 126 -100 185 -121 43 -15 41 -7 -5 14 -64 30 -164 142 -211 235 -76 151
-89 298 -42 473 38 143 102 248 219 359 32 31 56 60 52 64 -3 4 -2 5 3 0 5 -4
21 0 35 10 14 9 36 23 49 31 12 8 22 12 22 9 0 -2 -19 -17 -42 -32 -56 -37
-171 -148 -213 -205 -86 -119 -118 -215 -118 -360 -1 -274 134 -496 355 -584
57 -22 81 -26 170 -26 171 0 290 36 426 128 216 148 345 454 299 713 -29 166
-129 328 -244 396 -24 14 -43 26 -43 28 0 2 23 -3 52 -11 47 -12 179 -91 195
-117 7 -12 -14 -1 -40 21 -9 8 -20 12 -25 8 -4 -4 0 -13 9 -19 26 -20 97 -145
118 -211 59 -176 44 -372 -42 -556 -39 -83 -53 -105 -147 -217 -36 -42 -58
-73 -50 -68 202 121 334 346 347 591 10 185 -45 343 -161 458 -76 76 -148 114
-251 133 -80 15 -313 25 -370 16z m231 -102 c153 -29 257 -109 320 -245 42
-91 61 -206 46 -281 -7 -34 -10 -41 -11 -22 0 16 -5 26 -10 23 -10 -7 -27 34
-36 86 -3 21 -11 40 -17 44 -8 5 -9 1 -3 -12 12 -29 27 -114 22 -127 -2 -7
-10 13 -17 43 -16 70 -117 226 -192 297 -104 97 -217 135 -385 129 -46 -1 -83
1 -83 4 0 11 49 31 125 50 78 21 167 25 241 11z m-122 -180 c90 -18 115 -30
116 -55 0 -10 -85 -3 -205 18 -49 9 -118 16 -151 16 -34 0 -76 3 -94 7 l-33 6
34 18 c44 23 189 19 333 -10z m-380 4 c-4 -8 -11 -15 -16 -15 -6 0 -5 6 2 15
7 8 14 15 16 15 2 0 1 -7 -2 -15z m309 -96 c36 -7 57 -17 57 -26 0 -11 -41
-13 -240 -11 -212 3 -237 5 -224 18 32 33 76 40 214 36 74 -3 161 -10 193 -17z
m-65 -100 c12 -8 22 -17 22 -21 0 -4 -96 -7 -214 -5 -180 2 -212 4 -203 16 23
27 55 31 212 28 114 -3 167 -8 183 -18z m197 -112 c0 -52 3 -66 13 -62 8 3 37
8 66 11 43 5 54 3 59 -10 4 -11 -6 -24 -31 -43 -20 -15 -41 -30 -46 -34 -4 -4
3 -23 18 -42 27 -35 34 -67 16 -67 -6 0 -33 12 -61 26 -28 14 -52 24 -53 22
-1 -2 -7 -30 -14 -63 -13 -67 -36 -100 -52 -75 -5 8 -10 48 -10 88 l0 74 -44
-26 c-81 -47 -118 -29 -61 31 42 44 43 52 10 83 -35 33 -33 60 4 60 16 0 45
-7 65 -15 36 -15 36 -15 46 10 6 15 10 28 10 31 0 3 7 21 15 40 10 25 20 35
32 32 15 -3 18 -14 18 -71z m-411 43 c60 -6 118 -16 130 -22 20 -12 20 -12 -9
-19 -39 -9 -256 -11 -321 -3 l-52 7 21 23 c24 28 58 30 231 14z m75 -122 c15
-11 19 -18 11 -23 -11 -7 -308 -5 -322 2 -3 2 -4 13 -1 24 6 21 10 22 148 17
106 -4 148 -9 164 -20z m-15 -113 c9 -11 16 -23 16 -27 0 -5 -81 -8 -180 -8
-101 0 -180 4 -180 9 0 5 9 7 19 4 11 -3 30 3 43 12 23 17 22 17 -25 12 -26
-2 -46 -2 -43 0 15 15 85 22 203 20 119 -2 134 -4 147 -22z m606 -119 c-14 -6
-24 -5 -33 3 -10 11 -8 12 11 6 24 -7 29 4 11 22 -9 9 -15 8 -26 -3 -26 -25
-37 -15 -12 12 l24 25 22 -28 c23 -28 23 -28 3 -37z m-607 -20 l19 -26 -151 0
c-97 0 -152 4 -157 11 -4 8 33 9 130 4 122 -7 136 -6 136 9 0 14 -17 16 -141
16 -100 0 -138 3 -133 11 4 8 49 9 142 6 132 -5 136 -6 155 -31z m87 -18 c0
-5 -11 -8 -25 -8 -14 0 -25 4 -25 9 0 5 -3 17 -6 25 -6 14 -2 14 25 -1 17 -10
31 -21 31 -25z m-65 -107 c0 -24 0 -24 -110 -22 -99 2 -112 4 -130 24 l-20 21
21 -17 c16 -14 41 -17 122 -17 61 0 102 4 102 10 0 6 -25 10 -55 10 -32 0 -55
4 -55 10 0 7 24 10 63 8 58 -3 62 -5 62 -27z m-155 9 c-36 -11 -52 -11 -45 0
3 6 21 10 38 9 31 -1 31 -1 7 -9z m265 1 l40 -9 -45 -1 c-38 -2 -41 -4 -22
-11 32 -13 27 -20 -13 -20 -31 0 -35 3 -35 25 0 28 9 29 75 16z m133 -18 c-16
-2 -40 -2 -55 0 -16 2 -3 4 27 4 30 0 43 -2 28 -4z m-25 -20 c-13 -2 -35 -2
-50 0 -16 2 -5 4 22 4 28 0 40 -2 28 -4z m-223 -68 c0 -11 -11 -15 -47 -13
l-48 1 45 6 c45 5 45 5 -20 11 l-65 7 68 1 c54 2 67 -1 67 -13z m63 9 c-7 -3
-9 -12 -6 -20 3 -8 0 -14 -6 -14 -6 0 -11 9 -11 20 0 13 6 20 18 19 9 0 12 -3
5 -5z m80 -31 c-7 -2 -21 -2 -30 0 -10 3 -4 5 12 5 17 0 24 -2 18 -5z"/>
<path d="M5815 6982 c6 -6 26 -15 45 -21 l35 -10 -40 5 c-29 3 -61 -3 -118
-26 -43 -16 -88 -31 -100 -31 -20 -1 -21 -2 -2 -6 11 -3 25 -8 30 -12 6 -3
129 -4 275 -1 188 4 255 8 230 14 -38 10 -132 10 -165 -1 -18 -5 -18 -4 -6 11
10 12 23 15 50 11 20 -3 -11 10 -69 29 -124 40 -179 53 -165 38z m-98 -88 c-3
-3 -12 -4 -19 -1 -8 3 -5 6 6 6 11 1 17 -2 13 -5z m70 0 c-3 -3 -12 -4 -19 -1
-8 3 -5 6 6 6 11 1 17 -2 13 -5z"/>
<path d="M5502 6720 c-68 -5 -127 -11 -130 -15 -3 -3 45 -5 108 -4 63 1 142 2
175 1 67 0 175 15 119 17 -17 0 -58 3 -90 5 -32 2 -115 0 -182 -4z"/>
<path d="M5409 6652 c17 -33 140 -127 261 -201 58 -35 116 -73 129 -83 32 -24
41 -23 41 7 0 23 2 25 23 14 31 -16 21 -8 -50 45 -35 25 -63 43 -63 38 0 -4
16 -18 35 -31 19 -13 35 -28 35 -33 0 -5 -4 -7 -9 -4 -5 4 -11 2 -13 -3 -1 -6
-54 21 -115 59 -153 93 -191 121 -242 171 -26 26 -39 35 -32 21z"/>
<path d="M5650 6556 c0 -2 8 -10 18 -17 15 -13 16 -12 3 4 -13 16 -21 21 -21
13z"/>
<path d="M5894 6371 c7 -11 46 -35 46 -28 0 3 -12 12 -26 22 -15 9 -23 12 -20
6z"/>
<path d="M5600 6339 c0 -9 185 -129 498 -323 26 -16 91 -49 145 -73 96 -43
138 -56 84 -27 -15 8 -25 19 -22 24 3 6 -1 7 -9 4 -8 -3 -21 -2 -28 2 -7 5
-15 9 -18 10 -36 7 -59 18 -53 27 3 6 1 7 -5 3 -6 -4 -41 12 -78 35 -56 36
-64 44 -48 50 18 7 18 8 1 8 -11 1 -16 6 -12 14 4 6 0 5 -7 -5 -13 -15 -16
-15 -38 4 -22 17 -22 18 -3 9 29 -15 30 -14 36 10 3 12 3 18 0 15 -7 -7 -33
13 -33 25 0 5 7 6 15 3 8 -4 15 -1 15 5 0 6 17 -5 38 -25 47 -45 100 -82 180
-124 38 -20 62 -39 62 -49 0 -10 5 -22 12 -29 14 -14 62 -16 53 -2 -7 12 -4
11 155 -67 69 -34 157 -70 195 -82 86 -25 216 -43 264 -36 l36 5 -37 -18 c-47
-23 -62 -37 -26 -23 30 11 108 50 108 54 0 1 -43 0 -96 -2 -173 -6 -280 29
-579 187 -197 104 -247 135 -316 196 -51 46 -181 119 -218 123 -21 2 -34 12
-43 34 -5 11 -107 18 -114 8 -3 -5 -10 -7 -15 -4 -5 4 -9 4 -9 2 0 -3 39 -29
86 -58 98 -62 137 -91 79 -59 -93 51 -175 106 -175 117 0 14 77 27 120 21 17
-3 27 -1 23 3 -10 9 -223 17 -223 8z m60 -21 c0 -5 -9 -4 -20 2 -11 6 -20 12
-20 14 0 2 9 2 20 -1 11 -3 20 -9 20 -15z m700 -368 c8 -5 11 -10 5 -10 -5 0
-17 5 -25 10 -8 5 -10 10 -5 10 6 0 17 -5 25 -10z"/>
<path d="M6160 6039 c0 -5 5 -7 10 -4 6 3 10 8 10 11 0 2 -4 4 -10 4 -5 0 -10
-5 -10 -11z"/>
<path d="M6180 6016 c0 -9 30 -14 35 -6 4 6 -3 10 -14 10 -12 0 -21 -2 -21 -4z"/>
<path d="M6287 5969 c7 -7 15 -10 18 -7 3 3 -2 9 -12 12 -14 6 -15 5 -6 -5z"/>
<path d="M6370 5890 c8 -5 20 -10 25 -10 6 0 3 5 -5 10 -8 5 -19 10 -25 10 -5
0 -3 -5 5 -10z"/>
<path d="M6640 5794 c0 -7 52 -25 57 -20 2 2 -10 8 -26 14 -17 6 -31 9 -31 6z"/>
<path d="M6748 5753 c7 -3 16 -2 19 1 4 3 -2 6 -13 5 -11 0 -14 -3 -6 -6z"/>
<path d="M6800 6746 c0 -2 7 -7 16 -10 8 -3 12 -2 9 4 -6 10 -25 14 -25 6z"/>
<path d="M6430 6629 c0 -12 31 -19 83 -19 31 0 47 4 42 9 -11 11 -125 19 -125
10z"/>
<path d="M4152 6210 c0 -19 2 -27 5 -17 2 9 2 25 0 35 -3 9 -5 1 -5 -18z"/>
<path d="M7645 6540 c-3 -5 1 -10 9 -10 9 0 16 5 16 10 0 6 -4 10 -9 10 -6 0
-13 -4 -16 -10z"/>
<path d="M7656 6512 c-2 -4 -1 -14 5 -22 7 -12 9 -10 9 8 0 23 -5 28 -14 14z"/>
<path d="M3747 6213 c-10 -9 -7 -94 3 -118 10 -22 10 -21 13 68 2 54 -2 65
-16 50z"/>
<path d="M7305 5522 c-8 -21 -3 -22 17 -2 14 13 15 17 3 17 -8 0 -17 -7 -20
-15z"/>
<path d="M6285 5684 c48 -8 115 -9 115 -2 0 5 -30 7 -67 7 -38 -1 -59 -3 -48
-5z"/>
<path d="M6435 5659 c3 -4 -20 -15 -52 -24 -127 -36 -182 -57 -219 -85 -39
-29 -60 -38 -49 -21 10 17 -26 28 -71 21 -36 -6 -42 -4 -33 7 8 9 8 13 0 13
-6 0 -11 9 -11 20 0 25 -25 26 -39 3 -14 -24 -14 -7 0 19 8 15 8 19 0 14 -6
-4 -11 -3 -11 3 0 5 10 12 23 14 19 4 18 4 -5 6 -22 1 -28 -3 -28 -20 0 -12
-6 -47 -14 -78 -29 -119 -29 -116 -10 -100 16 13 16 12 1 -18 -9 -17 -21 -35
-27 -38 -5 -3 -10 -11 -10 -16 0 -18 20 2 54 54 45 71 73 94 124 102 36 6 42
4 42 -11 0 -10 -8 -26 -17 -37 -22 -25 -4 -16 47 23 51 40 103 64 215 99 117
36 136 46 106 54 -12 3 -19 1 -16 -4z"/>
<path d="M6005 5650 c-3 -6 1 -7 9 -4 18 7 21 14 7 14 -6 0 -13 -4 -16 -10z"/>
<path d="M6575 5509 c-22 -12 -44 -26 -50 -31 -5 -6 0 -5 13 1 12 6 22 8 22 3
0 -5 -9 -13 -20 -18 -14 -6 9 -9 72 -9 58 -1 102 -6 117 -14 22 -12 24 -12 18
8 -3 11 -1 24 4 27 5 3 7 10 4 15 -3 5 1 6 9 3 32 -12 15 8 -19 22 -50 21
-123 18 -170 -7z m147 -23 c3 -30 2 -33 -13 -25 -10 5 -30 9 -44 9 -25 0 -26
1 -9 18 10 9 21 17 25 17 4 0 11 3 15 8 14 14 22 7 26 -27z"/>
<path d="M6095 5220 c-3 -6 1 -7 9 -4 18 7 21 14 7 14 -6 0 -13 -4 -16 -10z"/>
<path d="M5975 5158 c-33 -15 -51 -27 -41 -28 20 0 156 38 156 44 0 2 -13 6
-28 8 -17 2 -52 -7 -87 -24z"/>
<path d="M6860 5290 c-11 -21 -20 -43 -20 -47 0 -10 34 45 43 70 12 31 -2 18
-23 -23z"/>
<path d="M6992 5070 c0 -14 2 -19 5 -12 2 6 2 18 0 25 -3 6 -5 1 -5 -13z"/>
<path d="M6781 4984 c0 -11 3 -14 6 -6 3 7 2 16 -1 19 -3 4 -6 -2 -5 -13z"/>
<path d="M4915 5060 c-13 -6 -15 -9 -5 -9 8 0 22 4 30 9 18 12 2 12 -25 0z"/>
<path d="M4793 5023 c9 -2 23 -2 30 0 6 3 -1 5 -18 5 -16 0 -22 -2 -12 -5z"/>
<path d="M4738 5013 c6 -2 18 -2 25 0 6 3 1 5 -13 5 -14 0 -19 -2 -12 -5z"/>
<path d="M4178 5003 c7 -3 16 -2 19 1 4 3 -2 6 -13 5 -11 0 -14 -3 -6 -6z"/>
<path d="M6643 5169 c-2 -23 3 -25 10 -4 4 8 3 16 -1 19 -4 3 -9 -4 -9 -15z"/>
<path d="M3263 4723 c9 -2 23 -2 30 0 6 3 -1 5 -18 5 -16 0 -22 -2 -12 -5z"/>
<path d="M3148 4703 c6 -2 18 -2 25 0 6 3 1 5 -13 5 -14 0 -19 -2 -12 -5z"/>
<path d="M3088 4693 c6 -2 18 -2 25 0 6 3 1 5 -13 5 -14 0 -19 -2 -12 -5z"/>
<path d="M3033 4683 c9 -2 23 -2 30 0 6 3 -1 5 -18 5 -16 0 -22 -2 -12 -5z"/>
<path d="M2978 4673 c6 -2 18 -2 25 0 6 3 1 5 -13 5 -14 0 -19 -2 -12 -5z"/>
<path d="M8515 4590 c-10 -11 -14 -20 -9 -20 5 0 15 9 22 20 7 11 11 20 9 20
-2 0 -12 -9 -22 -20z"/>
<path d="M7659 3683 c-2 -5 -28 -26 -56 -47 -60 -42 -70 -55 -20 -26 48 30 92
68 85 75 -3 4 -8 3 -9 -2z"/>
<path d="M7050 4240 c-30 -4 -85 -11 -122 -15 -36 -3 -73 -12 -82 -18 -8 -7
-38 -92 -66 -189 -28 -98 -53 -183 -55 -190 -4 -11 17 -12 112 -5 166 12 189
19 213 67 16 30 110 336 110 356 0 6 -45 3 -110 -6z"/>
<path d="M6046 4191 c-83 -11 -122 -21 -127 -31 -12 -21 -50 -143 -46 -146 5
-5 260 26 266 31 5 6 51 146 51 158 0 4 -6 6 -12 6 -7 -1 -67 -9 -132 -18z"/>
<path d="M2728 4273 c6 -2 18 -2 25 0 6 3 1 5 -13 5 -14 0 -19 -2 -12 -5z"/>
<path d="M2593 4253 c9 -2 23 -2 30 0 6 3 -1 5 -18 5 -16 0 -22 -2 -12 -5z"/>
<path d="M4500 4038 c-123 -14 -130 -19 -161 -113 -14 -44 -37 -122 -50 -173
-30 -117 -26 -126 60 -130 71 -3 140 22 164 60 12 17 107 343 107 364 0 5 -10
4 -120 -8z"/>
<path d="M3625 3959 c-33 -5 -79 -12 -102 -15 -49 -6 -49 -5 -113 -234 -23
-80 -44 -154 -47 -164 -5 -18 -1 -19 86 -13 102 8 139 22 175 69 25 33 64 155
91 283 11 54 11 71 2 77 -14 9 -10 9 -92 -3z"/>
<path d="M3635 3115 l-50 -13 55 5 c30 3 59 9 65 14 12 12 -9 10 -70 -6z"/>
<path d="M3538 3093 c7 -3 16 -2 19 1 4 3 -2 6 -13 5 -11 0 -14 -3 -6 -6z"/>
<path d="M2094 5908 l-19 -23 23 19 c21 18 27 26 19 26 -2 0 -12 -10 -23 -22z"/>
<path d="M2760 5711 c-230 -102 -410 -193 -545 -276 -133 -80 -146 -92 -41
-36 55 29 89 41 110 39 29 -3 27 -6 -37 -37 -122 -61 -64 -43 114 34 96 42
258 110 362 152 103 42 186 78 183 80 -2 2 -35 -8 -73 -22 -37 -15 -97 -38
-133 -52 -36 -14 -78 -27 -95 -28 -46 -4 -47 -4 -40 -15 4 -6 -1 -7 -11 -3
-11 4 -13 8 -6 11 7 2 12 8 12 14 0 10 -10 9 -55 -6 -11 -4 -4 2 15 13 20 11
54 20 78 21 36 0 42 3 42 21 0 15 17 28 73 54 147 68 242 114 232 115 -5 0
-89 -36 -185 -79z m-210 -176 c0 -2 -6 -5 -13 -8 -8 -3 -14 1 -14 8 0 7 6 11
14 8 7 -3 13 -6 13 -8z m-151 -19 c-2 -2 -15 -9 -29 -15 -24 -11 -24 -11 -6 3
16 13 49 24 35 12z m111 0 c0 -2 -7 -6 -15 -10 -8 -3 -15 -1 -15 4 0 6 7 10
15 10 8 0 15 -2 15 -4z m-172 -38 c-2 -8 6 -12 22 -11 l25 3 -25 -15 c-14 -8
-28 -14 -32 -15 -10 0 -10 34 -1 43 10 10 13 8 11 -5z"/>
<path d="M2960 5690 c-8 -5 -10 -10 -5 -10 6 0 17 5 25 10 8 5 11 10 5 10 -5
0 -17 -5 -25 -10z"/>
<path d="M2845 5453 c-66 -19 -167 -48 -225 -65 -158 -45 -411 -130 -406 -135
3 -3 24 2 48 10 138 49 209 67 235 60 l28 -7 -35 -7 c-19 -3 -88 -21 -154 -38
-65 -17 -128 -29 -140 -26 -17 5 -18 4 -6 -4 13 -9 12 -11 -4 -11 -11 0 -17
-3 -14 -6 4 -3 113 19 245 50 131 30 290 64 353 76 152 27 252 48 258 55 9 9
-21 5 -166 -20 -78 -14 -153 -25 -165 -25 -22 1 -21 1 3 15 34 19 10 19 -39
-1 -22 -9 -48 -14 -57 -12 -9 1 50 22 132 46 175 51 265 81 244 80 -8 0 -69
-16 -135 -35z m-185 -97 c0 -3 -4 -8 -10 -11 -5 -3 -10 -1 -10 4 0 6 5 11 10
11 6 0 10 -2 10 -4z m-120 -16 c-14 -4 -32 -8 -40 -9 -13 -1 -13 0 0 9 8 5 26
9 40 9 l25 -1 -25 -8z"/>
<path d="M1889 5413 c-13 -16 -12 -17 4 -4 9 7 17 15 17 17 0 8 -8 3 -21 -13z"/>
<path d="M3228 5243 c12 -2 30 -2 40 0 9 3 -1 5 -23 4 -22 0 -30 -2 -17 -4z"/>
<path d="M2110 5213 l-25 -15 25 6 c14 3 31 6 38 6 6 0 12 5 12 10 0 14 -20
11 -50 -7z"/>
<path d="M4099 5207 c7 -9 24 -16 37 -15 23 2 24 10 1 14 -7 1 -21 6 -32 10
-18 7 -18 6 -6 -9z"/>
<path d="M4031 5196 c2 -2 20 -6 39 -10 25 -4 31 -3 20 4 -14 9 -69 15 -59 6z"/>
<path d="M2110 5130 c-20 -6 -21 -8 -5 -8 11 0 29 3 40 8 25 11 -1 11 -35 0z"/>
<path d="M1390 4741 c-6 -12 -7 -21 -1 -21 10 0 24 30 17 37 -2 3 -9 -5 -16
-16z"/>
<path d="M1908 4703 c12 -2 30 -2 40 0 9 3 -1 5 -23 4 -22 0 -30 -2 -17 -4z"/>
<path d="M1985 3849 c-38 -5 -135 -15 -215 -24 -80 -9 -185 -22 -235 -31 -49
-8 -119 -20 -155 -26 -142 -23 -470 -116 -495 -139 -17 -16 58 -9 635 66 146
19 312 39 370 45 178 19 166 15 179 65 6 24 11 46 11 49 0 7 2 7 -95 -5z"/>
<path d="M2203 2963 c9 -2 23 -2 30 0 6 3 -1 5 -18 5 -16 0 -22 -2 -12 -5z"/>
<path d="M2138 2953 c6 -2 18 -2 25 0 6 3 1 5 -13 5 -14 0 -19 -2 -12 -5z"/>
<path d="M2068 2943 c6 -2 18 -2 25 0 6 3 1 5 -13 5 -14 0 -19 -2 -12 -5z"/>
<path d="M2008 2933 c7 -3 16 -2 19 1 4 3 -2 6 -13 5 -11 0 -14 -3 -6 -6z"/>
<path d="M1933 2923 c9 -2 23 -2 30 0 6 3 -1 5 -18 5 -16 0 -22 -2 -12 -5z"/>
<path d="M1858 2913 c6 -2 18 -2 25 0 6 3 1 5 -13 5 -14 0 -19 -2 -12 -5z"/>
<path d="M1788 2903 c6 -2 18 -2 25 0 6 3 1 5 -13 5 -14 0 -19 -2 -12 -5z"/>
<path d="M1658 2883 c7 -3 16 -2 19 1 4 3 -2 6 -13 5 -11 0 -14 -3 -6 -6z"/>
<path d="M1280 2825 c-47 -11 -50 -13 -20 -13 19 0 51 6 70 13 44 17 22 17
-50 0z"/>
<path d="M1198 2803 c7 -3 16 -2 19 1 4 3 -2 6 -13 5 -11 0 -14 -3 -6 -6z"/>
</g>
</svg>
